<svg class="{{ with .class }}{{ . }} {{ end }}icon icon-facebook" width="36" height="30" viewBox="-153 -46 652 652"><path d="M-206.2,28.8h69.9l36.1,312.3l37.3-312.3h61.3l36.3,312.3L70.9,28.8h69.9l-68.5,500H-0.7l-31.9-287.4l-34.5,287.4h-69L-206.2,28.8z M553.5,260.4h-62.1l31.7-231.6h-69.9l-26.9,231.6h-18.7L380.7,28.8h-61.3l-27.7,231.6h-19L245.9,28.8H176l32.4,231.6h-62.8v52.9h70.3l30.2,215.5h69L341,313.3h16.6l23.9,215.5h73.1l29.5-215.5h69.4L553.5,260.4z M282,341.1l-3.2-27.9h6.5L282,341.1zM347.4,260.4l2.3-18.9l2.1,18.9H347.4z M416.9,341.1l-3.2-27.9h6.5L416.9,341.1z"/></svg>